# xmcd CD database file
#
# Track frame offsets:
#	150
#	12372
#	29203
#	40777
#	62117
#	80540
#
# Disc length: 1372 seconds
#
# Revision: 0
# Processed by: cddbd v1.5.2PL0 Copyright (c) Steve Scherf et al.
# Submitted via: CDex 1.70beta2
#
DISCID=4a055a06
DTITLE=divers - Jazzmag n°627 - 07-2011 (1949-1959 Young Wes)
DYEAR=2011
DGENRE=Jazz
TTITLE0=Lionel Hampton Ochestra - Hamp's Gumbo
TTITLE1=Robert Johnson Quintet - Love for sale
TTITLE2=The Montgomery Brothers - Finger pickin'
TTITLE3=The Montgomery Brothers and Five Others - Billie's Bounce
TTITLE4=The Montgomery Brothers - Montgomery Funk
TTITLE5=The Wes Montgomery Trio - 'Round Midnight
EXTD=YEAR: 2011
EXTT0=
EXTT1=
EXTT2=
EXTT3=
EXTT4=
EXTT5=
PLAYORDER=
